# xmcd CD database file
#
# Track frame offsets:
#	150
#	4425
#	21525
#	38257
#	53880
#	70395
#	85010
#	98847
#	105292
#	129625
#	147640
#	164490
#	181565
#	200500
#	218317
#	226080
#
# Disc length: 3251 seconds
#
# Revision: 1
# Processed by: cddbd v1.5.2PL0 Copyright (c) Steve Scherf et al.
# Submitted via: CDex 1.51
#
DISCID=ce0cb110
DTITLE=Burkhard Schmidl - Enter and Return
DYEAR=1991
DGENRE=New Age
TTITLE0=Enter
TTITLE1=Sailing
TTITLE2=Dolphins dance
TTITLE3=Seven Oceans
TTITLE4=The Shore
TTITLE5=Mistral
TTITLE6=Talk over distance
TTITLE7=Under water
TTITLE8=Daybreak
TTITLE9=Horizon
TTITLE10=Pole Star
TTITLE11=Nautilus
TTITLE12=Behind the next wave
TTITLE13=Deep Water
TTITLE14=Anchorage
TTITLE15=Return
EXTD=YEAR: 1991
EXTT0=
EXTT1=
EXTT2=
EXTT3=
EXTT4=
EXTT5=
EXTT6=
EXTT7=
EXTT8=
EXTT9=
EXTT10=
EXTT11=
EXTT12=
EXTT13=
EXTT14=
EXTT15=
PLAYORDER=
